<?xml version="1.0" encoding="utf-8"?>
<!-- Generator: Adobe Illustrator 25.0.0, SVG Export Plug-In . SVG Version: 6.00 Build 0)  -->
<svg version="1.1" id="Layer_1" xmlns="http://www.w3.org/2000/svg" xmlns:xlink="http://www.w3.org/1999/xlink" x="0px" y="0px"
	 viewBox="0 0 1000 1000" style="enable-background:new 0 0 1000 1000;" xml:space="preserve">
<style type="text/css">
	.st0{fill:#FFFFFF;}
	.st1{fill:#FFFF00;}
	.st2{font-family:'Minecraft';}
	.st3{font-size:9.6354px;}
</style>
<g>
	<path class="st0" d="M478.78,444.94c0-5.05,0-10.1,0-15.25c-3.42,0-6.8,0-10.17,0l0.02,0.02c0-5.05,0-10.1,0-15.25
		c-5.12,0-10.19,0-15.25,0l0.02,0.02c0-3.36,0-6.72,0-10.15c-1.71,0-3.36,0-5.05,0c0-1.71,0-3.35,0-5.04c5.03,0,10.07,0,15.15,0
		c0,1.65,0,3.3,0,5.01c-1.65,0-3.29,0-4.98,0c0,1.7,0,3.36,0,5.06c3.34,0,6.69,0,10.09,0c0-1.66,0-3.3,0-4.99c1.7,0,3.36,0,5.09,0
		c0,1.65,0,3.31,0,4.99c3.4,0,6.74,0,10.12,0c0-1.65,0-3.31,0-5.04c-1.65,0-3.31,0-5.01,0c0-5.1,0-10.12,0-15.19
		c-1.7,0-3.36,0-5.09,0c0,1.65,0,3.31,0,5c-1.71,0-3.35,0-5.04,0c0-3.35,0-6.7,0-10.12c1.66,0,3.31,0,5,0c0-1.71,0-3.35,0-5.06
		c-1.66,0-3.31,0-5.01,0c0-6.8,0-13.54,0-20.3c1.67,0,3.3,0,5.02,0c0,1.66,0,3.31,0,5.01c1.71,0,3.35,0,5.06,0c0-1.63,0-3.29,0-4.99
		c3.42,0,6.77,0,10.15,0c0,1.64,0,3.28,0,5c-1.64,0-3.29,0-5.02,0c0,1.73,0,3.38,0,5.09c-1.71,0-3.35,0-5.04,0c0,1.7,0,3.36,0,5.11
		c3.36,0,6.74,0,10.11,0l-0.02-0.02c0,3.36,0,6.72,0,10.17c-1.71,0-3.39,0-5.07,0c0-1.68,0-3.36,0-5.04c-1.73,0-3.38,0-5.02,0
		c0,1.7,0,3.35,0,5.03c1.71,0,3.38,0,5.04,0c0,3.36,0,6.72,0,10.18c1.71,0,3.39,0,5.07,0l-0.02-0.02c0,1.67,0,3.33,0,5.07
		c1.71,0,3.36,0,5.13,0c0,1.76,0,3.44,0,5.12c-1.7,0-3.4,0-5.11,0c0,3.43,0,6.78,0,10.14c-3.37,0-6.75,0-10.2,0
		c0,1.73,0,3.39,0,5.09c-1.71,0-3.35,0-5,0c0,1.7,0,3.36,0,5.04c3.4,0,6.76,0,10.12,0c0,1.68,0,3.36,0,5.04c5.11,0,10.15,0,15.18,0
		c0-5.08,0-10.12,0-15.18c-1.71,0-3.38,0-5.04,0c0.01-3.38,0.02-6.77,0.03-10.15c6.74,0,13.47,0,20.28,0c0,3.41,0,6.78,0,10.15
		l0.02-0.02c-3.37,0-6.75,0-10.11,0c0,1.75,0,3.41,0,5.11c1.69,0,3.33,0,5.04,0c0,3.4,0,6.74,0,10.14c1.74,0,3.41,0,5.07,0
		l-0.02-0.02c0,3.37,0,6.74,0,10.12c1.74,0,3.39,0,5.11,0c0-1.69,0-3.35,0-5.05c1.73,0,3.4,0,5.06,0c0,1.68,0,3.36,0,5.04
		c3.42,0,6.77,0,10.14,0c0-3.4,0-6.76,0-10.12c3.39,0.01,6.78,0.01,10.18,0.02l-0.02-0.02c0,1.67,0,3.33,0,5.07c1.7,0,3.36,0,5.05,0
		c0,1.73,0,3.38,0,5.08c-1.67,0-3.3,0-5.01,0c0,3.39,0,6.74,0,10.18c-1.75,0-3.43,0-5.11,0c0-1.68,0-3.36,0-5.04
		c-1.73,0-3.38,0-5.02,0c0,1.7,0,3.35,0,5.03c1.71,0,3.38,0,5.04,0c0,1.67,0,3.33,0,5.07c5.07,0,10.11,0,15.18,0
		c0,1.71,0,3.35,0,5.06c-1.64,0-3.29,0-4.99,0c0,1.73,0,3.38,0,5.09c1.65,0,3.29,0,4.98,0c0,1.7,0,3.36,0,5.09
		c-1.64,0-3.29,0-4.99,0c0,3.4,0,6.73,0,10.14c1.64,0,3.29,0,4.99,0c0,1.73,0,3.38,0,5.08c-5.04,0-10.08,0-15.17,0
		c0-1.66,0-3.3,0-5.01c-5.09,0-10.13,0-15.24,0c0-1.72,0-3.38,0-5.08c-1.71,0-3.35,0-5.06,0c0-3.4,0-6.74,0-10.19
		c-3.45,0-6.82,0-10.19,0l0.02,0.02c0-10.14,0-20.29,0-30.43c-1.75,0-3.41,0-5.11,0c0,1.69,0,3.33,0,4.98c-1.7,0-3.36,0-5.09,0
		c0-1.7,0-3.35,0-5c-5.1,0-10.12,0-15.22,0c0,3.38,0,6.73,0,10.11c-1.74,0-3.41,0-5.07,0L478.78,444.94z M534.64,465.25
		c-3.37,0-6.75,0-10.11,0c0,1.73,0,3.39,0,5.09c1.69,0,3.33,0,5.04,0c0,1.7,0,3.36,0,5c5.11,0,10.15,0,15.18,0c0-1.69,0-3.33,0-5.04
		c-3.38,0-6.73,0-10.13,0c0-1.74,0-3.4,0-5.07c1.68,0,3.36,0,5.04,0c0-1.73,0-3.38,0-5.02c-1.7,0-3.35,0-5.03,0
		C534.64,461.92,534.64,463.59,534.64,465.25z M529.52,444.96c-5.1,0-10.12,0-15.16,0c0,5.07,0,10.11,0,15.15
		c5.08,0,10.12,0,15.16,0C529.52,455.04,529.52,450.02,529.52,444.96z"/>
	<path class="st0" d="M463.49,394.12c-11.84,0-23.63,0-35.46,0c0-11.82,0-23.62,0-35.46c11.8,0,23.61,0,35.46,0
		C463.49,370.45,463.49,382.26,463.49,394.12z M433.12,363.71c0,8.48,0,16.9,0,25.31c8.47,0,16.9,0,25.31,0c0-8.46,0-16.87,0-25.31
		C449.98,363.71,441.57,363.71,433.12,363.71z"/>
	<path class="st0" d="M554.91,358.65c0,11.84,0,23.63,0,35.46c-11.82,0-23.62,0-35.46,0c0-11.8,0-23.61,0-35.46
		C531.24,358.65,543.05,358.65,554.91,358.65z M549.82,389.04c0-8.48,0-16.9,0-25.31c-8.47,0-16.89,0-25.31,0
		c0,8.46,0,16.87,0,25.31C532.95,389.04,541.36,389.04,549.82,389.04z"/>
	<path class="st0" d="M473.71,475.4c0-3.36,0-6.71,0-10.14c-1.7,0-3.35,0-5.05,0c0-3.41,0-6.76,0-10.19c3.38,0,6.75,0,10.12,0
		c0,1.68,0,3.36,0,5.04c1.73,0,3.38,0,5.02,0c0-1.7,0-3.35,0-5.03c-1.71,0-3.38,0-5.04,0c0.01-1.7,0.01-3.4,0.02-5.09l-0.02,0.02
		c3.37,0,6.75,0,10.19,0c0,3.42,0,6.77,0,10.16c1.71,0,3.35,0,5.01,0c0,1.7,0,3.36,0,5.08c-1.69,0-3.35,0-5.01,0
		c0,1.71,0,3.35,0,5.02c3.38,0,6.72,0,10.14,0c0-1.69,0-3.35,0-5.03c3.43,0,6.79,0,10.15,0l-0.02-0.02c0,3.36,0,6.72,0,10.15
		c-1.69,0-3.34,0-5.05,0c0,1.71,0,3.35,0,5.04c-1.7,0-3.36,0-5.09,0c0-1.65,0-3.31,0-4.99c-1.71,0-3.35,0-5.07,0
		c0,1.66,0,3.31,0,5.01c-1.71,0-3.35,0-5.07,0c0-1.64,0-3.29,0-5.05c-5.14,0-10.21,0-15.28,0L473.71,475.4z"/>
	<path class="st0" d="M428.02,485.52c0-11.83,0-23.63,0-35.47c11.82,0,23.63,0,35.48,0c0,11.81,0,23.62,0,35.47
		C451.68,485.52,439.89,485.52,428.02,485.52z M458.41,480.44c0-8.48,0-16.9,0-25.31c-8.47,0-16.9,0-25.31,0c0,8.46,0,16.87,0,25.31
		C441.55,480.44,449.96,480.44,458.41,480.44z"/>
	<path class="st0" d="M524.48,409.39c0-3.36,0-6.72,0-10.12c1.69,0,3.34,0,5.05,0c0,1.66,0,3.3,0,4.98c1.7,0,3.36,0,5.09,0
		c0-1.65,0-3.31,0-4.99c6.79,0,13.51,0,20.27,0c0,1.66,0,3.31,0,5.02c-1.64,0-3.28,0-4.99,0c0,1.7,0,3.36,0,5.12
		c-1.76,0-3.44,0-5.12,0c0-1.68,0-3.36,0-5.04c-1.73,0-3.38,0-5.02,0c0,1.7,0,3.35,0,5.03c1.71,0,3.38,0,5.04,0
		c0,1.67,0,3.33,0,5.07c1.68,0,3.34,0,5.04,0c0,1.71,0,3.35,0,5.06c1.7,0,3.36,0,5.06,0c0,1.73,0,3.38,0,5.09c-1.65,0-3.29,0-5,0
		c0,1.7,0,3.36,0,5.09c-1.75,0-3.44,0-5.12,0l0.02,0.02c0-1.68,0-3.37,0-5.08c-3.46,0-6.82,0-10.18,0c0-1.68,0-3.36,0-5.12
		c1.75,0,3.41,0,5.05,0c0-1.71,0-3.35,0-5.06c-3.38,0-6.72,0-10.14,0c0-1.72,0-3.38,0-5.08c-1.74,0-3.4,0-5.07,0L524.48,409.39z"/>
	<path class="st0" d="M458.42,434.74c0,1.67,0,3.34,0,5.08c1.72,0,3.37,0,5.07,0c0,1.73,0,3.38,0,5.07c-3.35,0-6.68,0-10.08,0
		c0-1.65,0-3.3,0-5c-1.73,0-3.38,0-5.09,0c0,1.66,0,3.3,0,4.99c-6.78,0-13.51,0-20.29,0c0-1.65,0-3.31,0-5.01
		c5.05,0,10.07,0,15.14,0c0-1.7,0-3.36,0-5.09c-1.66,0-3.31,0-5,0c0-1.71,0-3.35,0-5.04c3.35,0,6.7,0,10.1,0c0,1.64,0,3.28,0,5.02
		c3.42,0,6.79,0,10.17,0C458.45,434.76,458.42,434.74,458.42,434.74z"/>
	<path class="st0" d="M453.38,414.45c0,1.7,0,3.4,0,5.1c0,0,0.02-0.02,0.02-0.02c-1.66,0-3.33,0-5.07,0c0,1.7,0,3.36,0,5.05
		c-1.72,0-3.38,0-5.08,0c0-1.66,0-3.3,0-5.02c-1.72,0-3.4,0-5.08,0c0,0,0.02,0.02,0.02,0.02c-0.01-2.6-0.03-5.21-0.04-7.81
		c0-0.76,0-1.51,0-2.34c-1.67,0-3.33,0-5.06,0c0-1.73,0-3.38,0-5.11c-1.73,0-3.38,0-5.07,0c0-1.71,0-3.35,0-5.04
		c3.35,0,6.7,0,10.11,0c0,1.65,0,3.31,0,5.01c1.71,0,3.35,0,5.06,0c0,3.39,0,6.74,0,10.18c3.45,0,6.82,0,10.19,0
		C453.4,414.47,453.38,414.45,453.38,414.45z"/>
	<path class="st0" d="M499.08,378.93c3.36,0,6.72,0,10.15,0c0-1.71,0-3.36,0-5.05c1.71,0,3.35,0,5.04,0c0,8.42,0,16.84,0,25.31
		c-1.64,0-3.3,0-5,0c0-5.04,0-10.06,0-15.16c-3.39,0-6.74,0-10.17,0c0-1.75,0-3.44,0-5.12L499.08,378.93z"/>
	<path class="st0" d="M514.31,414.47c1.66,0,3.33,0,5.06,0c0-1.7,0-3.35,0-5.08c1.75,0,3.43,0,5.11,0l-0.02-0.02
		c0,5.06,0,10.12,0,15.25c-1.71,0-3.37,0-5.09,0c0,1.72,0,3.38,0,5.06c-1.74,0-3.4,0-5.06,0l0.02,0.02c0-5.08,0-10.17,0-15.25
		L514.31,414.47z"/>
	<path class="st0" d="M499.1,363.69c0-1.67,0-3.33,0-5.04c5.07,0,10.11,0,15.18,0c0,3.35,0,6.7,0,10.08c-1.66,0-3.3,0-5.01,0
		c0-1.65,0-3.3,0-5.06c-3.44,0-6.82,0-10.19,0L499.1,363.69z"/>
	<path class="st0" d="M473.69,475.38c0,1.67,0,3.33,0,5.07c1.7,0,3.35,0,5.05,0c0,1.71,0,3.35,0,5.04c-3.33,0-6.67,0-10.07,0
		c0-3.32,0-6.67,0-10.09c1.68,0,3.36,0,5.04,0C473.71,475.4,473.69,475.38,473.69,475.38z"/>
	<path class="st0" d="M453.37,419.55c3.36,0,6.71,0,10.12,0c0,1.67,0,3.33,0,5.03c-3.33,0-6.68,0-10.1,0c0-1.68,0-3.36,0-5.04
		C453.39,419.53,453.37,419.55,453.37,419.55z"/>
	<path class="st0" d="M468.61,429.68c0,1.7,0,3.4,0,5.1l0.02-0.02c-3.4-0.01-6.8-0.01-10.2-0.02c0,0,0.02,0.02,0.02,0.02
		c0-1.66,0-3.33,0-5.06c3.44,0,6.81,0,10.18,0C468.63,429.7,468.61,429.68,468.61,429.68z"/>
	<path class="st0" d="M499.13,389.1c1.69,0,3.32,0,5,0c0,3.36,0,6.69,0,10.07c-1.64,0-3.3,0-5,0
		C499.13,395.85,499.13,392.5,499.13,389.1z"/>
	<path class="st0" d="M478.78,450c-3.36,0-6.71,0-10.12,0c0-1.68,0-3.33,0-5.06c3.37,0,6.75,0,10.12,0c0,0-0.02-0.02-0.02-0.02
		c0,1.7,0,3.4,0,5.1L478.78,450z"/>
	<path class="st0" d="M433.1,419.5c-1.68,0-3.36,0-5.08,0c0-1.66,0-3.3,0-4.99c1.64,0,3.29,0,5.06,0c0,1.65,0,3.33,0,5.01
		C433.08,419.52,433.1,419.5,433.1,419.5z"/>
	<path class="st0" d="M433.06,424.61c0,1.66,0,3.33,0,5.04c-1.67,0-3.33,0-5.02,0c0-1.65,0-3.3,0-5.02c1.68,0,3.36,0,5.04,0
		L433.06,424.61z"/>
	<path class="st0" d="M468.61,434.78c1.66,0,3.33,0,5.04,0c0,1.68,0,3.33,0,5.03c-1.64,0-3.3,0-5.02,0c0-1.68,0-3.36,0-5.04
		C468.62,434.76,468.61,434.78,468.61,434.78z"/>
	<path class="st0" d="M488.94,394.16c0-1.66,0-3.33,0-5.04c1.68,0,3.33,0,5.03,0c0,1.64,0,3.3,0,5.02c-1.68,0-3.36,0-5.04,0
		C488.92,394.14,488.94,394.16,488.94,394.16z"/>
	<path class="st0" d="M499.1,378.91c-1.67,0-3.33,0-5.08,0c0-1.71,0-3.4,0-5.08c0,0-0.02,0.02-0.02,0.02c1.7,0,3.4,0,5.1,0
		c0,0-0.02-0.02-0.02-0.02c0,1.7,0,3.4,0,5.1C499.08,378.93,499.1,378.91,499.1,378.91z"/>
	<path class="st0" d="M499.08,368.77c1.66,0,3.33,0,5.04,0c0,1.68,0,3.33,0,5.06c-1.68,0-3.36,0-5.04,0c0,0,0.02,0.02,0.02,0.02
		c0-1.7,0-3.4,0-5.1L499.08,368.77z"/>
	<path class="st0" d="M488.94,373.85c0-1.67,0-3.33,0-5.08c1.71,0,3.4,0,5.08,0c0,0-0.02-0.02-0.02-0.02c0,1.7,0,3.4,0,5.1
		c0,0,0.02-0.02,0.02-0.02c-1.7,0-3.4,0-5.1,0C488.92,373.83,488.94,373.85,488.94,373.85z"/>
	<path class="st0" d="M499.08,363.67c0,1.7,0,3.4,0,5.1c0,0,0.02-0.02,0.02-0.02c-1.7,0-3.4,0-5.1,0c0,0,0.02,0.02,0.02,0.02
		c0-1.67,0-3.33,0-5.08c1.71,0,3.4,0,5.08,0C499.1,363.69,499.08,363.67,499.08,363.67z"/>
	<path class="st0" d="M433.08,424.63c0.01-1.71,0.01-3.42,0.02-5.13c0,0-0.02,0.02-0.02,0.02c1.7,0.01,3.4,0.03,5.1,0.05
		c0,0-0.02-0.02-0.02-0.02c0,1.66,0,3.32,0,5.06c-1.75,0-3.43,0-5.11,0C433.06,424.61,433.08,424.63,433.08,424.63z"/>
	<path class="st1" d="M384.59,381.48c0-0.85,0-1.7,0-2.55c0.83,0,1.67,0,2.53,0c0-1.69,0-3.36,0-5.05c2.55,0,5.06,0,7.6,0
		c0,0.82,0,1.65,0,2.5c0.86,0,1.69,0,2.54,0c0-0.83,0-1.64,0-2.49c0.85,0,1.68,0,2.55,0c0,5.06,0,10.13,0,15.2
		c-1.68,0-3.36,0-5.07,0c0,0.84,0,1.67,0,2.51c-1.71,0-3.38,0-5.07,0c0-0.83,0-1.65,0-2.51c0.83,0,1.65,0,2.5,0
		c0-0.86,0-1.69,0-2.54c-0.83,0-1.65,0-2.5,0c0-1.7,0-3.37,0-5.08C387.96,381.48,386.27,381.48,384.59,381.48z M392.2,378.94
		c0-0.84,0-1.68,0-2.52c-0.86,0-1.69,0-2.51,0c0,0.85,0,1.67,0,2.51C390.55,378.93,391.38,378.93,392.2,378.94
		c0.01,1.68,0.01,3.36,0.01,5.06c0.87,0,1.7,0,2.53,0c0,0.84,0,1.68,0,2.52c0.86,0,1.69,0,2.51,0c0-0.85,0-1.67,0-2.51
		c-0.86,0-1.69,0-2.52,0c0-1.69,0-3.37,0-5.07C393.86,378.94,393.03,378.94,392.2,378.94z"/>
	<path class="st1" d="M402.35,371.32c0.83,0,1.66,0,2.53,0c0-0.84,0-1.67,0-2.53c0.86,0,1.69,0,2.54,0c0-2.56,0-5.09,0-7.62
		c0.83,0,1.66,0,2.53,0c0,0.85,0,1.68,0,2.54c1.71,0,3.38,0,5.07,0c0,0.85,0,1.67,0,2.53c-0.82,0-1.65,0-2.53,0
		c0,0.88,0,1.72,0,2.56l0.01-0.01c-0.84,0-1.68,0-2.55,0c0,0.88,0,1.71,0,2.55l0.01-0.01c-0.84,0-1.68,0-2.55,0
		c0,0.88,0,1.71,0,2.55l0.01-0.01c-0.83,0-1.66,0-2.53,0c0,0.85,0,1.67,0,2.52c-0.86,0-1.69,0-2.55,0
		C402.35,374.69,402.35,373.01,402.35,371.32z"/>
	<path class="st1" d="M409.95,378.95c0,2.53,0,5.04,0,7.57c-2.52,0-5.04,0-7.58,0c0-2.52,0-5.03,0-7.57
		C404.89,378.95,407.4,378.95,409.95,378.95z M404.91,381.49c0,0.86,0,1.68,0,2.51c0.84,0,1.66,0,2.49,0c0-0.84,0-1.67,0-2.51
		C406.57,381.49,405.75,381.49,404.91,381.49z"/>
	<path class="st1" d="M413.38,471.56c0,2.53,0,5.04,0,7.57c-2.52,0-5.04,0-7.58,0c0-2.52,0-5.03,0-7.57
		C408.32,471.56,410.83,471.56,413.38,471.56z M408.35,474.09c0,0.86,0,1.68,0,2.51c0.84,0,1.66,0,2.49,0c0-0.84,0-1.67,0-2.51
		C410,474.09,409.18,474.09,408.35,474.09z"/>
	<path class="st1" d="M398.45,466.39c0,2.53,0,5.04,0,7.57c-2.52,0-5.04,0-7.58,0c0-2.52,0-5.03,0-7.57
		C393.39,466.39,395.9,466.39,398.45,466.39z"/>
	<path class="st1" d="M412.49,389.08c0,0.83,0,1.66,0,2.53c1.7,0,3.37,0,5.06,0c0,0.85,0,1.67,0,2.52c-2.51,0-5.03,0-7.58,0
		c0-0.82,0-1.65,0-2.5c-0.85,0-1.67,0-2.52,0c0-0.85,0-1.68,0-2.54C409.13,389.09,410.82,389.09,412.49,389.08L412.49,389.08z"/>
	<path class="st1" d="M393.55,453.97c0,0.83,0,1.66,0,2.53c1.7,0,3.37,0,5.06,0c0,0.85,0,1.67,0,2.52c-2.51,0-5.03,0-7.58,0
		c0-0.82,0-1.65,0-2.5c-0.85,0-1.67,0-2.52,0c0-0.85,0-1.68,0-2.54C390.19,453.98,391.87,453.98,393.55,453.97L393.55,453.97z"/>
	<path class="st1" d="M393.55,481.58c1.7,0,3.37,0,5.06,0c0,0.85,0,1.67,0,2.52c-2.51,0-5.03,0-7.58,0c0-0.82,0-1.65,0-2.5
		L393.55,481.58z"/>
	<path class="st1" d="M392.2,363.72c0.83,0,1.66,0,2.52,0c0,2.53,0,5.05,0,7.58c-2.51,0-5.03,0-7.58,0c0-0.84,0-1.68,0-2.52
		l-0.01,0.01c1.69,0,3.37,0,5.08,0C392.21,367.07,392.21,365.39,392.2,363.72L392.2,363.72z"/>
	<path class="st1" d="M402.35,363.71c0,2.54,0,5.08,0,7.62c-0.83,0-1.67,0-2.53,0c0-1.7,0-3.37,0-5.07c-0.85,0-1.67,0-2.52,0
		c0-0.85,0-1.68,0-2.55C398.98,363.71,400.67,363.71,402.35,363.71z"/>
	<path class="st1" d="M387.13,368.78c-1.68,0-3.36,0-5.06,0c0-0.84,0-1.67,0-2.52c0.82,0,1.64,0,2.5,0c0-0.85,0-1.68,0-2.54
		c1.72,0,3.41,0,5.09,0l-0.01-0.01c0,0.84,0,1.68,0,2.55c-0.86,0-1.69,0-2.54,0C387.12,367.13,387.12,367.96,387.13,368.78
		L387.13,368.78z"/>
	<path class="st1" d="M412.49,371.32c0,1.68,0,3.35,0,5.05c-1.68,0-3.35,0-5.06,0c0-0.84,0-1.68,0-2.52l-0.01,0.01
		c0.84,0,1.68,0,2.55,0c0-0.88,0-1.71,0-2.55l-0.01,0.01C410.8,371.33,411.65,371.33,412.49,371.32L412.49,371.32z"/>
	<path class="st1" d="M412.49,368.79c1.68,0,3.36,0,5.08,0c0,0.86,0,1.7,0,2.54c-1.69,0-3.39-0.01-5.08-0.01l0.01,0.01
		C412.5,370.48,412.5,369.63,412.49,368.79L412.49,368.79z"/>
	<path class="st1" d="M389.67,363.72c0-1.68,0-3.35,0-5.06c0.85,0,1.7,0,2.55,0c0,0-0.01-0.01-0.01-0.01c0,1.69-0.01,3.38-0.01,5.07
		c0,0,0.01-0.01,0.01-0.01C391.36,363.71,390.51,363.71,389.67,363.72L389.67,363.72z"/>
	<path class="st1" d="M415.04,381.47c-0.83,0-1.66,0-2.52,0c0-0.84,0-1.66,0-2.51c0.82,0,1.65,0,2.51,0
		C415.03,379.8,415.03,380.64,415.04,381.47C415.03,381.48,415.04,381.47,415.04,381.47z"/>
	<path class="st1" d="M412.5,389.09c0-0.83,0-1.66,0-2.52c0.84,0,1.66,0,2.51,0c0,0.82,0,1.65,0,2.51
		C414.17,389.08,413.33,389.08,412.5,389.09C412.49,389.08,412.5,389.09,412.5,389.09z"/>
	<path class="st1" d="M384.59,384.01c0.83,0,1.66,0,2.52,0c0,0.84,0,1.66,0,2.51c-0.82,0-1.65,0-2.51,0
		C384.6,385.68,384.6,384.84,384.59,384.01C384.6,384.01,384.59,384.01,384.59,384.01z"/>
	<path class="st1" d="M384.59,417.43c0.83,0,1.66,0,2.52,0c0,0.84,0,1.66,0,2.51c-0.82,0-1.65,0-2.51,0
		C384.6,419.1,384.6,418.26,384.59,417.43C384.6,417.42,384.59,417.43,384.59,417.43z"/>
	<path class="st1" d="M387.1,417.43c0.83,0,1.66,0,2.52,0c0,0.84,0,1.66,0,2.51c-0.82,0-1.65,0-2.51,0
		C387.11,419.1,387.11,418.26,387.1,417.43C387.11,417.42,387.1,417.43,387.1,417.43z"/>
	<path class="st1" d="M389.62,417.43c0.83,0,1.66,0,2.52,0c0,0.84,0,1.66,0,2.51c-0.82,0-1.65,0-2.51,0
		C389.63,419.1,389.63,418.26,389.62,417.43C389.63,417.42,389.62,417.43,389.62,417.43z"/>
	<path class="st1" d="M392.14,417.43c0.83,0,1.66,0,2.52,0c0,0.84,0,1.66,0,2.51c-0.82,0-1.65,0-2.51,0
		C392.15,419.1,392.15,418.26,392.14,417.43C392.15,417.42,392.14,417.43,392.14,417.43z"/>
	<path class="st1" d="M394.66,417.43c0.83,0,1.66,0,2.52,0c0,0.84,0,1.66,0,2.51c-0.82,0-1.65,0-2.51,0
		C394.67,419.1,394.67,418.26,394.66,417.43C394.67,417.42,394.66,417.43,394.66,417.43z"/>
	<path class="st1" d="M397.18,417.43c0.83,0,1.66,0,2.52,0c0,0.84,0,1.66,0,2.51c-0.82,0-1.65,0-2.51,0
		C397.19,419.1,397.19,418.26,397.18,417.43C397.19,417.42,397.18,417.43,397.18,417.43z"/>
	<path class="st1" d="M399.7,417.43c0.83,0,1.66,0,2.52,0c0,0.84,0,1.66,0,2.51c-0.82,0-1.65,0-2.51,0
		C399.71,419.1,399.71,418.26,399.7,417.43C399.71,417.42,399.7,417.43,399.7,417.43z"/>
	<path class="st1" d="M402.21,417.43c0.83,0,1.66,0,2.52,0c0,0.84,0,1.66,0,2.51c-0.82,0-1.65,0-2.51,0
		C402.22,419.1,402.22,418.26,402.21,417.43C402.22,417.42,402.21,417.43,402.21,417.43z"/>
	<path class="st1" d="M404.73,417.43c0.83,0,1.66,0,2.52,0c0,0.84,0,1.66,0,2.51c-0.82,0-1.65,0-2.51,0
		C404.74,419.1,404.74,418.26,404.73,417.43C404.74,417.42,404.73,417.43,404.73,417.43z"/>
	<path class="st1" d="M407.25,417.43c0.83,0,1.66,0,2.52,0c0,0.84,0,1.66,0,2.51c-0.82,0-1.65,0-2.51,0
		C407.26,419.1,407.26,418.26,407.25,417.43C407.26,417.42,407.25,417.43,407.25,417.43z"/>
	<path class="st1" d="M409.77,417.43c0.83,0,1.66,0,2.52,0c0,0.84,0,1.66,0,2.51c-0.82,0-1.65,0-2.51,0
		C409.78,419.1,409.78,418.26,409.77,417.43C409.78,417.42,409.77,417.43,409.77,417.43z"/>
	<path class="st1" d="M412.29,417.43c0.83,0,1.66,0,2.52,0c0,0.84,0,1.66,0,2.51c-0.82,0-1.65,0-2.51,0
		C412.3,419.1,412.3,418.26,412.29,417.43C412.3,417.42,412.29,417.43,412.29,417.43z"/>
	<path class="st1" d="M414.81,417.43c0.83,0,1.66,0,2.52,0c0,0.84,0,1.66,0,2.51c-0.82,0-1.65,0-2.51,0
		C414.82,419.1,414.82,418.26,414.81,417.43C414.82,417.42,414.81,417.43,414.81,417.43z"/>
	<path class="st1" d="M389.62,414.91c0.83,0,1.66,0,2.52,0c0,0.84,0,1.66,0,2.51c-0.82,0-1.65,0-2.51,0
		C389.63,416.58,389.63,415.74,389.62,414.91C389.63,414.9,389.62,414.91,389.62,414.91z"/>
	<path class="st1" d="M392.14,412.39c0.83,0,1.66,0,2.52,0c0,0.84,0,1.66,0,2.51c-0.82,0-1.65,0-2.51,0
		C392.15,414.06,392.15,413.22,392.14,412.39C392.15,412.38,392.14,412.39,392.14,412.39z"/>
	<path class="st1" d="M402.21,412.39c0.83,0,1.66,0,2.52,0c0,0.84,0,1.66,0,2.51c-0.82,0-1.65,0-2.51,0
		C402.22,414.06,402.22,413.22,402.21,412.39C402.22,412.38,402.21,412.39,402.21,412.39z"/>
	<path class="st1" d="M402.21,414.91c0.83,0,1.66,0,2.52,0c0,0.84,0,1.66,0,2.51c-0.82,0-1.65,0-2.51,0
		C402.22,416.58,402.22,415.74,402.21,414.91C402.22,414.9,402.21,414.91,402.21,414.91z"/>
	<path class="st1" d="M394.66,409.87c0.83,0,1.66,0,2.52,0c0,0.84,0,1.66,0,2.51c-0.82,0-1.65,0-2.51,0
		C394.67,411.54,394.67,410.7,394.66,409.87C394.67,409.86,394.66,409.87,394.66,409.87z"/>
	<path class="st1" d="M402.21,409.87c0.83,0,1.66,0,2.52,0c0,0.84,0,1.66,0,2.51c-0.82,0-1.65,0-2.51,0
		C402.22,411.54,402.22,410.7,402.21,409.87C402.22,409.86,402.21,409.87,402.21,409.87z"/>
	<path class="st1" d="M397.18,407.35c0.83,0,1.66,0,2.52,0c0,0.84,0,1.66,0,2.51c-0.82,0-1.65,0-2.51,0
		C397.19,409.02,397.19,408.18,397.18,407.35C397.19,407.34,397.18,407.35,397.18,407.35z"/>
	<path class="st1" d="M402.21,407.35c0.83,0,1.66,0,2.52,0c0,0.84,0,1.66,0,2.51c-0.82,0-1.65,0-2.51,0
		C402.22,409.02,402.22,408.18,402.21,407.35C402.22,407.34,402.21,407.35,402.21,407.35z"/>
	<path class="st1" d="M399.7,404.83c0.83,0,1.66,0,2.52,0c0,0.84,0,1.66,0,2.51c-0.82,0-1.65,0-2.51,0
		C399.71,406.5,399.71,405.66,399.7,404.83C399.71,404.82,399.7,404.83,399.7,404.83z"/>
	<path class="st1" d="M402.21,404.83c0.83,0,1.66,0,2.52,0c0,0.84,0,1.66,0,2.51c-0.82,0-1.65,0-2.51,0
		C402.22,406.5,402.22,405.66,402.21,404.83C402.22,404.82,402.21,404.83,402.21,404.83z"/>
	<path class="st1" d="M402.21,402.31c0.83,0,1.66,0,2.52,0c0,0.84,0,1.66,0,2.51c-0.82,0-1.65,0-2.51,0
		C402.22,403.98,402.22,403.14,402.21,402.31C402.22,402.3,402.21,402.31,402.21,402.31z"/>
	<path class="st1" d="M417.32,424.97c-0.83,0-1.66,0-2.52,0c0-0.84,0-1.66,0-2.51c0.82,0,1.65,0,2.51,0
		C417.32,423.3,417.32,424.14,417.32,424.97C417.32,424.98,417.32,424.97,417.32,424.97z"/>
	<path class="st1" d="M414.81,424.97c-0.83,0-1.66,0-2.52,0c0-0.84,0-1.66,0-2.51c0.82,0,1.65,0,2.51,0
		C414.8,423.3,414.8,424.14,414.81,424.97C414.8,424.98,414.81,424.97,414.81,424.97z"/>
	<path class="st1" d="M412.29,424.97c-0.83,0-1.66,0-2.52,0c0-0.84,0-1.66,0-2.51c0.82,0,1.65,0,2.51,0
		C412.28,423.3,412.28,424.14,412.29,424.97C412.28,424.98,412.29,424.97,412.29,424.97z"/>
	<path class="st1" d="M409.77,424.97c-0.83,0-1.66,0-2.52,0c0-0.84,0-1.66,0-2.51c0.82,0,1.65,0,2.51,0
		C409.76,423.3,409.76,424.14,409.77,424.97C409.76,424.98,409.77,424.97,409.77,424.97z"/>
	<path class="st1" d="M407.25,424.97c-0.83,0-1.66,0-2.52,0c0-0.84,0-1.66,0-2.51c0.82,0,1.65,0,2.51,0
		C407.24,423.3,407.24,424.14,407.25,424.97C407.24,424.98,407.25,424.97,407.25,424.97z"/>
	<path class="st1" d="M404.73,424.97c-0.83,0-1.66,0-2.52,0c0-0.84,0-1.66,0-2.51c0.82,0,1.65,0,2.51,0
		C404.72,423.3,404.72,424.14,404.73,424.97C404.72,424.98,404.73,424.97,404.73,424.97z"/>
	<path class="st1" d="M402.21,424.97c-0.83,0-1.66,0-2.52,0c0-0.84,0-1.66,0-2.51c0.82,0,1.65,0,2.51,0
		C402.2,423.3,402.2,424.14,402.21,424.97C402.2,424.98,402.21,424.97,402.21,424.97z"/>
	<path class="st1" d="M399.7,424.97c-0.83,0-1.66,0-2.52,0c0-0.84,0-1.66,0-2.51c0.82,0,1.65,0,2.51,0
		C399.69,423.3,399.69,424.14,399.7,424.97C399.69,424.98,399.7,424.97,399.7,424.97z"/>
	<path class="st1" d="M397.18,424.97c-0.83,0-1.66,0-2.52,0c0-0.84,0-1.66,0-2.51c0.82,0,1.65,0,2.51,0
		C397.17,423.3,397.17,424.14,397.18,424.97C397.17,424.98,397.18,424.97,397.18,424.97z"/>
	<path class="st1" d="M394.66,424.97c-0.83,0-1.66,0-2.52,0c0-0.84,0-1.66,0-2.51c0.82,0,1.65,0,2.51,0
		C394.65,423.3,394.65,424.14,394.66,424.97C394.65,424.98,394.66,424.97,394.66,424.97z"/>
	<path class="st1" d="M392.14,424.97c-0.83,0-1.66,0-2.52,0c0-0.84,0-1.66,0-2.51c0.82,0,1.65,0,2.51,0
		C392.13,423.3,392.13,424.14,392.14,424.97C392.13,424.98,392.14,424.97,392.14,424.97z"/>
	<path class="st1" d="M389.62,424.97c-0.83,0-1.66,0-2.52,0c0-0.84,0-1.66,0-2.51c0.82,0,1.65,0,2.51,0
		C389.61,423.3,389.61,424.14,389.62,424.97C389.61,424.98,389.62,424.97,389.62,424.97z"/>
	<path class="st1" d="M387.1,424.97c-0.83,0-1.66,0-2.52,0c0-0.84,0-1.66,0-2.51c0.82,0,1.65,0,2.51,0
		C387.09,423.3,387.09,424.14,387.1,424.97C387.09,424.98,387.1,424.97,387.1,424.97z"/>
	<path class="st1" d="M412.29,427.49c-0.83,0-1.66,0-2.52,0c0-0.84,0-1.66,0-2.51c0.82,0,1.65,0,2.51,0
		C412.28,425.82,412.28,426.66,412.29,427.49C412.28,427.5,412.29,427.49,412.29,427.49z"/>
	<path class="st1" d="M409.77,430.01c-0.83,0-1.66,0-2.52,0c0-0.84,0-1.66,0-2.51c0.82,0,1.65,0,2.51,0
		C409.76,428.34,409.76,429.18,409.77,430.01C409.76,430.02,409.77,430.01,409.77,430.01z"/>
	<path class="st1" d="M399.7,430.01c-0.83,0-1.66,0-2.52,0c0-0.84,0-1.66,0-2.51c0.82,0,1.65,0,2.51,0
		C399.69,428.34,399.69,429.18,399.7,430.01C399.69,430.02,399.7,430.01,399.7,430.01z"/>
	<path class="st1" d="M399.7,427.49c-0.83,0-1.66,0-2.52,0c0-0.84,0-1.66,0-2.51c0.82,0,1.65,0,2.51,0
		C399.69,425.82,399.69,426.66,399.7,427.49C399.69,427.5,399.7,427.49,399.7,427.49z"/>
	<path class="st1" d="M394.66,430.01c-0.83,0-1.66,0-2.52,0c0-0.84,0-1.66,0-2.51c0.82,0,1.65,0,2.51,0
		C394.65,428.34,394.65,429.18,394.66,430.01C394.65,430.02,394.66,430.01,394.66,430.01z"/>
	<path class="st1" d="M409.77,414.89c-0.83,0-1.66,0-2.52,0c0-0.84,0-1.66,0-2.51c0.82,0,1.65,0,2.51,0
		C409.76,413.22,409.76,414.06,409.77,414.89C409.76,414.9,409.77,414.89,409.77,414.89z"/>
	<path class="st1" d="M407.25,432.53c-0.83,0-1.66,0-2.52,0c0-0.84,0-1.66,0-2.51c0.82,0,1.65,0,2.51,0
		C407.24,430.86,407.24,431.7,407.25,432.53C407.24,432.54,407.25,432.53,407.25,432.53z"/>
	<path class="st1" d="M399.7,432.53c-0.83,0-1.66,0-2.52,0c0-0.84,0-1.66,0-2.51c0.82,0,1.65,0,2.51,0
		C399.69,430.86,399.69,431.7,399.7,432.53C399.69,432.54,399.7,432.53,399.7,432.53z"/>
	<path class="st1" d="M404.73,435.05c-0.83,0-1.66,0-2.52,0c0-0.84,0-1.66,0-2.51c0.82,0,1.65,0,2.51,0
		C404.72,433.38,404.72,434.22,404.73,435.05C404.72,435.06,404.73,435.05,404.73,435.05z"/>
	<path class="st1" d="M399.7,435.05c-0.83,0-1.66,0-2.52,0c0-0.84,0-1.66,0-2.51c0.82,0,1.65,0,2.51,0
		C399.69,433.38,399.69,434.22,399.7,435.05C399.69,435.06,399.7,435.05,399.7,435.05z"/>
	<path class="st1" d="M402.21,437.57c-0.83,0-1.66,0-2.52,0c0-0.84,0-1.66,0-2.51c0.82,0,1.65,0,2.51,0
		C402.2,435.9,402.2,436.74,402.21,437.57C402.2,437.58,402.21,437.57,402.21,437.57z"/>
	<path class="st1" d="M399.7,437.57c-0.83,0-1.66,0-2.52,0c0-0.84,0-1.66,0-2.51c0.82,0,1.65,0,2.51,0
		C399.69,435.9,399.69,436.74,399.7,437.57C399.69,437.58,399.7,437.57,399.7,437.57z"/>
	<path class="st1" d="M399.7,440.09c-0.83,0-1.66,0-2.52,0c0-0.84,0-1.66,0-2.51c0.82,0,1.65,0,2.51,0
		C399.69,438.42,399.69,439.26,399.7,440.09C399.69,440.1,399.7,440.09,399.7,440.09z"/>
	<path class="st1" d="M417.58,361.17c-0.83,0-1.66,0-2.52,0c0-0.84,0-1.66,0-2.51c0.82,0,1.65,0,2.51,0
		C417.57,359.51,417.57,360.34,417.58,361.17C417.57,361.18,417.58,361.17,417.58,361.17z"/>
	<path class="st0" d="M494,444.94c1.67,0,3.33,0,5.07,0c0,3.4,0,6.78,0,10.15l0.02-0.02c-1.67,0-3.33,0-5.07,0c0-3.4,0-6.78,0-10.15
		L494,444.94z"/>
	<path class="st0" d="M494.02,444.92c-1.66,0-3.33,0-5.04,0c0-1.68,0-3.33,0-5.03c1.64,0,3.3,0,5.02,0c0,1.68,0,3.36,0,5.04
		C494,444.94,494.02,444.92,494.02,444.92z"/>
	<path class="st0" d="M499.07,455.09c1.66,0,3.33,0,5.04,0c0,1.68,0,3.33,0,5.03c-1.64,0-3.3,0-5.02,0c0-1.68,0-3.36,0-5.04
		C499.09,455.07,499.07,455.09,499.07,455.09z"/>
	<path class="st0" d="M534.64,424.61c0,1.7,0,3.4,0,5.1c-1.7,0-3.4,0-5.1,0c0-1.67,0-3.33,0-5.1
		C531.27,424.61,532.96,424.61,534.64,424.61z"/>
	<path class="st0" d="M529.56,429.69c0,1.67,0,3.33,0,5.1c-1.73,0-3.41,0-5.1,0c0-1.67,0-3.33,0-5.1
		C526.2,429.69,527.88,429.69,529.56,429.69z"/>
	<path class="st0" d="M519.45,450.03c1.68,0,3.31,0,4.99,0c0,1.68,0,3.33,0,5.02c-1.66,0-3.3,0-4.99,0
		C519.45,453.4,519.45,451.75,519.45,450.03z"/>
	<path class="st0" d="M488.92,414.45c1.7,0,3.4,0,5.1,0c0,3.36,0,6.72,0,10.17c-3.42,0-6.8,0-10.17,0c0-1.66,0-3.33,0-5.06
		c1.7,0,3.35,0,5.08,0C488.92,417.81,488.92,416.13,488.92,414.45z"/>
	<path class="st0" d="M453.36,368.81c0,5.07,0,10.09,0,15.15c-5.05,0-10.07,0-15.15,0c0-5.02,0-10.06,0-15.15
		C443.22,368.81,448.26,368.81,453.36,368.81z"/>
	<path class="st1" d="M418.28,484.07c-5.8,0-11.59,0-17.38,0c0-5.8,0-11.58,0-17.38c5.78,0,11.57,0,17.38,0
		C418.28,472.47,418.28,478.26,418.28,484.07z M403.4,469.17c0,4.16,0,8.29,0,12.41c4.15,0,8.28,0,12.4,0c0-4.15,0-8.27,0-12.41
		C411.66,469.17,407.54,469.17,403.4,469.17z"/>
	<path class="st1" d="M418.28,468.9c-5.8,0-11.59,0-17.38,0c0-5.8,0-11.58,0-17.38c5.78,0,11.57,0,17.38,0
		C418.28,457.3,418.28,463.09,418.28,468.9z M403.4,454c0,4.16,0,8.29,0,12.41c4.15,0,8.28,0,12.4,0c0-4.15,0-8.27,0-12.41
		C411.66,454,407.54,454,403.4,454z"/>
	<path class="st1" d="M403.4,478.86c-5.8,0-11.59,0-17.38,0c0-5.8,0-11.58,0-17.38c5.78,0,11.57,0,17.38,0
		C403.4,467.26,403.4,473.05,403.4,478.86z M388.51,463.96c0,4.16,0,8.29,0,12.41c4.15,0,8.28,0,12.4,0c0-4.15,0-8.27,0-12.41
		C396.77,463.96,392.65,463.96,388.51,463.96z"/>
	<path class="st0" d="M544.74,383.97c-5.07,0-10.09,0-15.15,0c0-5.05,0-10.07,0-15.15c5.02,0,10.06,0,15.15,0
		C544.74,373.83,544.74,378.87,544.74,383.97z"/>
	<path class="st0" d="M453.36,460.21c0,5.07,0,10.09,0,15.15c-5.05,0-10.07,0-15.15,0c0-5.02,0-10.06,0-15.15
		C443.22,460.21,448.26,460.21,453.36,460.21z"/>
</g>
<text transform="matrix(1 0 0 1 428.0668 498.8895)"><tspan x="0" y="0" class="st0 st2 st3">V</tspan><tspan x="6.05" y="0" class="st0 st2 st3">1</tspan><tspan x="10.26" y="0" class="st0 st2 st3">.</tspan><tspan x="11.49" y="0" class="st0 st2 st3">2.112 - 0569</tspan></text>
</svg>
