<svg id="Layer_1" data-name="Layer 1" xmlns="http://www.w3.org/2000/svg" width="18.89mm" height="22.73mm" viewBox="0 0 53.54 64.44">
  <defs>
    <style>
      .cls-1 {
        fill: #fff;
      }
    </style>
  </defs>
  <path class="cls-1" d="M1268.14,752.2a3.81,3.81,0,0,1-2.6-2l-11.77-22.71a3.78,3.78,0,0,1-.46-1.7h0v-.07a3.78,3.78,0,0,1,.89-2.45c.12-.13.24-.26.37-.38A3.76,3.76,0,0,1,1257,722h.07l45.89-.53A3.77,3.77,0,0,1,1303,729l-20.62.23-10.12,20.94a3.75,3.75,0,0,1-3.33,2.13A4.25,4.25,0,0,1,1268.14,752.2Zm-4.91-22.78,5.54,10.68,5.22-10.8Zm-7-10.83a3.77,3.77,0,0,1,.7-7.46l20.61-.23L1287.64,690a3.76,3.76,0,0,1,6.73-.1l11.77,22.71a3.72,3.72,0,0,1,.46,1.76,3.76,3.76,0,0,1-.88,2.46,4.89,4.89,0,0,1-.39.4,3.72,3.72,0,0,1-2.4.94h0l-22.94.27h0l-22.89.26A4.07,4.07,0,0,1,1256.21,718.59ZM1291.15,700l-5.22,10.8,10.75-.12Z" transform="translate(-1253.19 -687.83)"/>
</svg>
