<?xml version="1.0" encoding="utf-8"?>
<!-- Generator: Adobe Illustrator 25.0.0, SVG Export Plug-In . SVG Version: 6.00 Build 0)  -->
<svg version="1.1" id="Layer_1" xmlns="http://www.w3.org/2000/svg" xmlns:xlink="http://www.w3.org/1999/xlink" x="0px" y="0px"
	 viewBox="0 0 2560 1440" style="enable-background:new 0 0 2560 1440;" xml:space="preserve">
<style type="text/css">
	.st0{fill:#FFFFFF;}
	.st1{fill:#DB2416;}
</style>
<g>
	<g>
		<g>
			<circle class="st0" cx="462.89" cy="1017.94" r="91.73"/>
			<path class="st0" d="M462.89,1130.69c-62.17,0-112.75-50.58-112.75-112.75s50.58-112.76,112.75-112.76
				c62.17,0,112.75,50.59,112.75,112.76S525.06,1130.69,462.89,1130.69z M462.89,947.23c-38.99,0-70.71,31.72-70.71,70.71
				c0,38.99,31.72,70.71,70.71,70.71s70.71-31.72,70.71-70.71C533.6,978.95,501.88,947.23,462.89,947.23z"/>
		</g>
		<path class="st0" d="M758.33,1130.69c-62.17,0-112.75-50.58-112.75-112.75s50.58-112.76,112.75-112.76
			c62.17,0,112.75,50.58,112.75,112.75S820.5,1130.69,758.33,1130.69z M758.33,947.23c-38.99,0-70.71,31.72-70.71,70.71
			c0,38.99,31.72,70.71,70.71,70.71s70.71-31.72,70.71-70.71S797.32,947.23,758.33,947.23z"/>
		<g>
			<circle class="st0" cx="1053.76" cy="1017.94" r="91.73"/>
			<path class="st0" d="M1053.76,1130.69c-62.17,0-112.75-50.59-112.75-112.76c0-62.17,50.58-112.75,112.75-112.75
				c62.17,0,112.75,50.58,112.75,112.75S1115.93,1130.69,1053.76,1130.69z M1053.76,947.23c-38.99,0-70.71,31.72-70.71,70.71
				c0,38.99,31.72,70.71,70.71,70.71c38.99,0,70.71-31.72,70.71-70.71S1092.75,947.23,1053.76,947.23z"/>
		</g>
		<g>
			<circle class="st0" cx="462.89" cy="720.04" r="91.73"/>
			<path class="st0" d="M462.89,832.8c-62.17,0-112.75-50.58-112.75-112.76c0-62.17,50.58-112.75,112.75-112.75
				c62.17,0,112.75,50.58,112.75,112.75C575.64,782.22,525.06,832.8,462.89,832.8z M462.89,649.33c-38.99,0-70.71,31.72-70.71,70.71
				c0,38.99,31.72,70.71,70.71,70.71s70.71-31.72,70.71-70.71C533.6,681.05,501.88,649.33,462.89,649.33z"/>
		</g>
		<g>
			<circle class="st1" cx="758.33" cy="720.04" r="91.73"/>
			<path class="st1" d="M758.33,822.77c-56.64,0-102.73-46.08-102.73-102.73s46.08-102.73,102.73-102.73s102.73,46.08,102.73,102.73
				S814.97,822.77,758.33,822.77z M758.33,639.31c-44.52,0-80.74,36.22-80.74,80.74c0,44.52,36.22,80.74,80.74,80.74
				s80.74-36.22,80.74-80.74C839.06,675.52,802.85,639.31,758.33,639.31z"/>
		</g>
		<g>
			<circle class="st0" cx="1053.76" cy="720.04" r="91.73"/>
			<path class="st0" d="M1053.76,832.8c-62.17,0-112.75-50.58-112.75-112.76c0-62.17,50.58-112.75,112.75-112.75
				c62.17,0,112.75,50.58,112.75,112.75C1166.52,782.22,1115.93,832.8,1053.76,832.8z M1053.76,649.33
				c-38.99,0-70.71,31.72-70.71,70.71c0,38.99,31.72,70.71,70.71,70.71c38.99,0,70.71-31.72,70.71-70.71
				C1124.47,681.05,1092.75,649.33,1053.76,649.33z"/>
		</g>
		<path class="st0" d="M462.89,534.9c-62.17,0-112.75-50.58-112.75-112.75c0-62.17,50.58-112.75,112.75-112.75
			c62.17,0,112.75,50.58,112.75,112.75C575.64,484.32,525.06,534.9,462.89,534.9z M462.89,351.43c-38.99,0-70.71,31.72-70.71,70.71
			s31.72,70.71,70.71,70.71s70.71-31.72,70.71-70.71S501.88,351.43,462.89,351.43z"/>
		<g>
			<circle class="st0" cx="758.33" cy="422.14" r="91.73"/>
			<path class="st0" d="M758.33,534.9c-62.17,0-112.75-50.58-112.75-112.75c0-62.17,50.58-112.75,112.75-112.75
				s112.75,50.58,112.75,112.75C871.08,484.32,820.5,534.9,758.33,534.9z M758.33,351.43c-38.99,0-70.71,31.72-70.71,70.71
				s31.72,70.71,70.71,70.71s70.71-31.72,70.71-70.71S797.32,351.43,758.33,351.43z"/>
		</g>
		<path class="st0" d="M1053.76,534.9c-62.17,0-112.75-50.58-112.75-112.75c0-62.17,50.58-112.75,112.75-112.75
			c62.17,0,112.75,50.58,112.75,112.75C1166.52,484.32,1115.93,534.9,1053.76,534.9z M1053.76,351.43
			c-38.99,0-70.71,31.72-70.71,70.71s31.72,70.71,70.71,70.71c38.99,0,70.71-31.72,70.71-70.71S1092.75,351.43,1053.76,351.43z"/>
	</g>
	<g>
		<g>
			<path class="st0" d="M1556.83,390.5c26,0,52.01,0.35,78.01-0.16c11.25-0.22,20.31,4.26,28.53,10.63
				c4.35,3.37,9.17,6.93,11.13,12.77c0.52,1.54,2.33,2.81,3.79,3.87c18.31,13.33,32.8,30.65,48.57,46.57
				c8.81,8.89,13.18,20.77,13.15,33.78c-0.07,27.66-0.06,55.32,0,82.98c0.02,7.7-2.18,14.14-8,19.69
				c-12.93,12.36-25.51,25.09-38.1,37.79c-2.69,2.71-6.23,4.74-7.19,9.06c-0.33,1.5-2.21,3.11-3.77,3.8
				c-6.15,2.73-10.13,7.91-14.48,12.54c-3.03,3.23-6.12,4.22-10.44,4.19c-32.59-0.18-65.19-0.1-97.79-0.1
				c-10.62,0-21.24,0.06-31.86-0.02c-7.33-0.05-10.3-3.04-10.4-10.3c-0.08-5.46,0.12-10.92-0.06-16.38
				c-0.14-4.44,0.8-8.56,4.32-11.3c6.66-5.18,10.03-13.55,17.68-17.69c1.55-5.72,6.19-5.48,10.71-5.48c11.35,0,22.71,0,34.06,0
				c16.48,0,32.99-0.5,49.43,0.27c5.93,0.28,8.58-4.34,13.24-5.43c6.4-11.18,17.08-18.46,25.78-27.53
				c3.81-3.97,5.55-7.66,5.43-13.18c-0.37-17.83-0.23-35.67-0.06-53.5c0.03-3.16-0.82-5.3-3.12-7.52
				c-11.01-10.67-21.87-21.5-32.65-32.4c-2.43-2.46-5.3-4.42-6.44-8.27c-1.27-4.28-7.81-4.21-9.18-9.14
				c-0.14-0.52-2.62-0.55-4.01-0.55c-31.13-0.03-62.26-0.05-93.39,0.01c-6.08,0.01-7.34,1.38-7.36,7.66
				c-0.05,20.38-0.01,40.76-0.03,61.14c0,3.94-2.47,7.01-6.35,7.57c-2.15,0.31-4.39,0.06-6.58,0.06c-11.72,0-23.44,0.04-35.16-0.01
				c-8.22-0.03-11.23-2.8-11.24-10.56c-0.04-38.94-0.03-77.88-0.01-116.82c0-4.93,2.12-7.39,7.03-7.99
				c2.16-0.26,4.39-0.04,6.59-0.04C1503.36,390.5,1530.1,390.5,1556.83,390.5z"/>
		</g>
		<g>
			<path class="st0" d="M1583.93,961.48c-34.06,0-68.11,0.02-102.17-0.04c-2.39,0-5.02,0.94-7.11-1.41
				c-2.13-2.4-4.32-4.25-4.13-8.21c0.47-9.8,0.15-19.64,0.15-29.47c0-29.47,0.13-58.95-0.1-88.42c-0.05-6.11,1.64-11.06,6.18-14.95
				c5.68-4.87,9.56-11.78,16.9-14.77c4.23-8.16,12.21-13.02,17.78-19.96c2.3-2.86,3.34-6.55,3.31-10.64
				c-0.2-25.47-0.1-50.94-0.1-76.42c0-1.82-0.03-3.64,0.01-5.46c0.13-6.26,1.3-7.6,7.39-7.64c14.28-0.09,28.56-0.06,42.84-0.01
				c8.93,0.03,13.97,5.5,10.95,13.65c-1.58,4.29-1.78,8.2-1.79,12.32c-0.1,29.47-0.23,58.95,0.08,88.42
				c0.07,6.21-1.27,10.73-6.04,15.12c-10.74,9.88-20.72,20.57-31.24,30.69c-4.92,4.73-7.21,9.97-6.93,16.88
				c0.43,10.54,0.3,21.11,0,31.65c-0.09,3.29,1.13,5.28,3.24,7.49c1.94,2.03,2.91,1.55,4.93,0.16c1.24-0.85,3.55-0.16,5.38-0.16
				c35.52,0,71.04-0.03,106.56,0.06c2.72,0.01,5.9-1.33,8.09,1.62c4.62-1.85,10.26-0.16,14.26-4.36
				c5.04-5.28,10.39-10.26,15.48-15.5c2.93-3.01,5.42-6.72,8.2-9.47c2.49-2.46,5.89-4.84,8.74-7.39c3.26-2.92,6.05-6.38,9.42-9.15
				c2.54-2.09,2.81-5.75,6.71-7.13c4.19-1.48,7.41-2.07,10.56,1.39c0.24,0.27,0.52,0.51,0.78,0.77c5.13,5.17,12.13,9.53,14.84,15.74
				c2.54,5.82,0.56,13.59,0.54,20.51c-0.02,6.17,1.61,13.04-0.61,18.3c-2.23,5.28-8.33,8.95-12.73,13.32
				c-12.95,12.87-25.99,25.64-38.77,38.67c-2.78,2.83-5.49,3.89-9.46,3.87C1652.04,961.4,1617.99,961.48,1583.93,961.48z"/>
		</g>
		<g>
			<path class="st0" d="M2062.04,857.5c0-14.57,0.06-29.14-0.05-43.71c-0.02-2.72,0.33-5.28-1.47-8.18
				c-1.51-2.42-2.28-3.63-5.19-3.53c-5.85,0.21-11.72,0.1-17.57,0.05c-6.99-0.06-10.28-2.99-10.85-9.85
				c-0.24-2.89-0.04-5.82-0.04-8.74c0-12.02-0.06-24.04,0.03-36.06c0.03-4.72,1.69-6.44,6.29-6.53c7.32-0.13,14.65,0.05,21.97-0.06
				c5.31-0.08,6.81-1.59,6.85-7.06c0.1-11.29,0.08-22.58-0.02-33.87c-0.01-1.67-0.61-3.36-1.11-4.99
				c-1.76-5.77,1.32-10.77,7.27-10.83c16.48-0.18,32.96-0.13,49.43-0.02c4.06,0.03,8.42,4.12,8.08,8.1
				c-0.63,7.35,2.5,15.08-2.06,22.06c-0.17,0.26-0.16,0.79,0,1.07c3.62,6.69-1.52,13.33-0.1,20.07c0.82,3.9,3.6,6.35,7.45,5.5
				c13.03-2.87,13.03-2.87,22.35,0c5.43,1.68,6.38,3.28,4.84,8.26c-0.5,1.61-1.49,3.2-1.51,4.81c-0.14,10.93-0.1,21.85-0.04,32.78
				c0.01,1.36,0.34,2.74,0.72,4.07c1.71,6.06-1.52,11.15-7.38,11.28c-6.22,0.13-12.45,0.01-18.67,0.04
				c-3.97,0.02-7.02,2.46-7.62,6.31c-0.28,1.78-0.05,3.63-0.05,5.46c0,20.76,0.1,41.52-0.09,62.28c-0.04,3.88,0.98,6.59,3.67,9.51
				c7.78,8.45,17.84,14.81,23.41,25.27c10.15,5.38,16.41,15.02,24.67,22.47c4.82,4.36,4.7,8.17,0.33,12.66
				c-4.07,4.19-8.27,8.26-12.41,12.38c-3.62,3.59-7.77,5.65-13.1,5.53c-9.15-0.22-18.31-0.18-27.46,0.01
				c-3.12,0.06-5.1-1.57-7.66-2.84c-7.73-3.85-9.68-13.73-18.25-16.34c-8.64-13.13-21.26-22.55-31.96-33.75
				c-2.36-2.47-2.71-4.78-2.7-7.7C2062.06,888.09,2062.04,872.79,2062.04,857.5z"/>
		</g>
		<g>
			<path class="st0" d="M1998.83,874.72c0,25.87,0.02,51.74-0.01,77.62c-0.01,7.84-3.06,10.91-10.9,10.92
				c-46.16,0.03-92.32-0.04-138.48,0.11c-3.95,0.01-6.77-0.9-9.47-3.84c-6.93-7.55-15.4-13.82-19.36-23.76
				c-7.84-4.91-12.4-13.05-19.08-19.14c-8.93-8.14-16.25-17.75-23.48-27.41c-2.81-3.76-6.79-6.63-9.97-10.15
				c-3.79-4.19-7.92-8.28-10.67-13.11c-1.53-2.69-2.78-6.06-2.72-9.84c0.32-21.49,0.15-43,0.16-64.5c0-4.01,2.41-6.98,6.33-7.6
				c1.79-0.28,3.66-0.05,5.49-0.05c12.46,0,24.91-0.02,37.37,0.01c10.19,0.02,12.32,2.24,12.35,12.77
				c0.02,10.57,0.05,21.14-0.02,31.7c-0.02,2.96,0.97,5.09,2.67,7.71c4.63,7.13,12.14,11.88,15.77,19.69
				c13.46,8.57,19.17,24.31,31.66,33.83c2.63,2,4.7,3.76,8.42,3.73c25.28-0.22,50.55-0.11,75.83-0.11c0.73,0,1.49,0.12,2.19-0.04
				c0.64-0.14,1.68-0.53,1.73-0.91c0.12-0.95,0.15-2.3-0.42-2.89c-4.3-4.48-8.69-8.87-13.18-13.17c-2.42-2.32-3.89-4.58-3.86-8.31
				c0.23-24.78,0.08-49.56,0.15-74.33c0.02-6.24,3.54-9.62,9.96-9.65c13.92-0.07,27.84-0.07,41.76,0c6.3,0.03,9.77,3.52,9.78,9.83
				C1998.85,820.79,1998.83,847.76,1998.83,874.72z"/>
		</g>
		<g>
			<path class="st0" d="M1903.69,1050.73c-28.2,0-56.41-0.06-84.61,0.04c-7.35,0.02-13.43-0.76-17.31-8.69
				c-2.71-5.54-7.86-9.97-12.19-14.66c-10.27-11.12-20.57-22.22-31.13-33.05c-2.78-2.85-3.81-5.58-3.72-9.48
				c0.26-12.02,0.09-24.04,0.1-36.07c0-7.31-0.05-7.36,5.5-13.93c2.26-2.67,4.71-5.01,6.43-8.26c1.3-2.46,4.89-3.68,7.38-5.55
				c3.15-2.38,7.66-2.26,10.45,0.83c3.05,3.38,5.8,7.04,8.57,10.66c2.56,3.34,6.99,5.06,7.98,9.86c0.31,1.49,2.46,2.57,3.69,3.92
				c7.01,7.67,14.46,15.01,20.79,23.2c3.23,4.17,6.29,7.82,10.78,10.78c2.61,1.72,4.75,2.69,7.75,2.67
				c15.02-0.08,30.04-0.03,45.05-0.03c34.8,0,69.6-0.01,104.39,0.01c5.25,0,5.25-1.08,5.24,5.27c-0.04,18.22,0.03,36.43-0.03,54.65
				c-0.02,6.86-1.03,7.82-8.3,7.83C1961.56,1050.76,1932.63,1050.73,1903.69,1050.73z"/>
		</g>
		<g>
			<path class="st0" d="M2001.03,465.92c39.91,0,79.82-0.01,119.72,0.01c5.45,0,5.53,0.06,5.54,4.94c0.04,15.3-0.19,30.6,0.15,45.88
				c0.09,4.17-1.38,6.92-4.45,9.11c-0.97,0.69-3.2,1.3-3.59,0.85c-2.71-3.1-6.18-1.68-9.23-1.69c-61.88-0.1-123.75-0.08-185.63-0.06
				c-2.51,0-5.12-0.16-7.52,0.43c-4.38,1.07-5.73,3.35-5.15,7.45c0.51,3.59,2.32,5.06,6.56,5.21c2.19,0.08,4.39,0.01,6.59,0.01
				c62.97,0,125.95,0,188.92,0c2.2,0,4.4-0.06,6.59,0.01c4.77,0.17,6.45,1.72,6.76,6.11c0.02,0.36,0.01,0.73,0,1.09
				c-0.15,5.4,1.5,11.84-0.88,15.95c-3.53,6.09-9.63,10.9-15.25,15.52c-2.32,1.91-5.75,2.25-5.97,6.22
				c-0.23,3.91-6.84,1.12-6.49,5.88c0.02,0.31-0.14,0.7-0.34,0.94c-5.33,6.12-10.91,9.87-20.2,9.79
				c-62.6-0.56-125.21-0.27-187.82-0.31c-9.6-0.01-18.33-2.84-26.03-8.7c-3.43-2.61-7.98-9.05-9.86-14.51
				c-4.84-14.1-4.93-26.79-2.31-41.2c1.1-6.06,0.98-12.56-0.8-19.05c-2.24-8.17-2.19-16.8,1.21-24.92
				c3.18-7.59,6.48-14.48,14.46-19.29c6.12-3.69,11.58-5.8,18.58-5.77C1923.41,466.01,1962.22,465.92,2001.03,465.92z"/>
		</g>
		<g>
			<path class="st0" d="M1909.55,730.49c-12.45,0-24.91,0.06-37.36-0.03c-6.27-0.05-9.62-3.53-9.65-9.95
				c-0.07-13.84-0.08-27.69,0-41.53c0.04-6.25,3.54-9.66,9.92-9.69c15.38-0.06,30.79-0.54,46.14,0.19
				c8.04,0.38,12.58-5.08,18.66-8.01c5.97-10.62,16.19-17.34,24.26-26.03c7.95-8.56,16.57-16.49,24.74-24.85
				c1.97-2.02,3.97-2.59,6.67-2.59c42.12,0.07,84.24,0.02,126.37,0.08c5.42,0.01,6.95,1.55,6.98,6.94
				c0.09,16.03-0.08,32.06,0.12,48.09c0.04,3.57-1.73,3.3-4.33,4.22c-5.18,1.84-9.74,3.3-14.83-0.12c-1.26-0.84-3.58-0.13-5.41-0.13
				c-25.27,0-50.55,0.03-75.82-0.02c-7.41-0.01-13.44,2.49-18.74,7.88c-16.39,16.67-33.28,32.86-49.53,49.65
				c-4.48,4.63-8.93,6.3-15.21,6.03C1931.54,730.14,1920.54,730.49,1909.55,730.49z"/>
		</g>
		<g>
			<path class="st0" d="M1759.51,566.49c0-29.12,0-58.23,0-87.35c0-2.18-0.06-4.37,0.01-6.55c0.17-4.74,1.73-6.64,6.15-6.67
				c15.73-0.11,31.47-0.11,47.2,0c4.05,0.03,7.9,4.08,8.17,8.12c0.12,1.81,0.02,3.64,0.02,5.46c0,49.86-0.11,99.72,0.1,149.58
				c0.04,8.66-2.81,15.7-8.89,21.46c-6.63,6.28-11.97,14.09-21.36,17.23c-2.14,0.72-3.11,1-5.45,0.28
				c-4.95-1.51-10.19-2.11-15.49,0.4c-4.48,2.12-10.04-1.94-10.44-6.98c-0.17-2.17-0.03-4.36-0.03-6.55
				C1759.51,625.45,1759.51,595.97,1759.51,566.49z"/>
		</g>
		<g>
			<path class="st0" d="M1759.51,420.92c0-7.26,0.07-14.51-0.04-21.77c-0.04-2.56,0.51-4.59,2-6.87c0.96-1.47,0.87-2.99,3.24-2.98
				c16.05,0.07,32.1-0.03,48.14,0.08c4.04,0.03,8.01,4.06,8.16,8.06c0.17,4.71,0.32,9.45-0.05,14.14
				c-0.32,4.08-1.13,8.18-2.22,12.13c-0.52,1.88-2.05,3.56-3.37,5.11c-4.36,5.11-9.98,8.99-13.26,15.21
				c-2.67,5.06-8.64,5.76-13.61,6.32c-6.84,0.78-13.85,0.41-20.76,0.13c-6.43-0.26-8.2-2.42-8.23-8.91
				C1759.49,434.71,1759.51,427.82,1759.51,420.92z"/>
		</g>
		<path class="st1" d="M1759.46,727.3c0-7.26,0.07-14.51-0.04-21.77c-0.04-2.56,0.51-4.59,2-6.87c0.96-1.47,0.87-2.99,3.24-2.98
			c16.05,0.07,32.1-0.03,48.14,0.08c4.04,0.03,8.01,4.05,8.16,8.06c0.17,4.71,0.32,9.45-0.05,14.14c-0.32,4.08-1.13,8.18-2.22,12.13
			c-0.52,1.88-2.05,3.56-3.37,5.11c-4.36,5.11-9.98,8.99-13.26,15.21c-2.67,5.06-8.64,5.76-13.61,6.32
			c-6.84,0.78-13.85,0.41-20.76,0.13c-6.43-0.26-8.2-2.42-8.23-8.91C1759.44,741.09,1759.46,734.19,1759.46,727.3z"/>
		<g>
			<path class="st0" d="M2148.05,566.49c0-29.12,0-58.23,0-87.35c0-2.18-0.06-4.37,0.01-6.55c0.17-4.74,1.73-6.64,6.15-6.67
				c15.73-0.11,31.47-0.11,47.2,0c4.05,0.03,7.9,4.08,8.17,8.12c0.12,1.81,0.02,3.64,0.02,5.46c0,49.86-0.11,99.72,0.1,149.58
				c0.04,8.66-2.81,15.7-8.89,21.46c-6.63,6.28-11.97,14.09-21.36,17.23c-2.14,0.72-3.11,1-5.45,0.28
				c-4.95-1.51-10.19-2.11-15.49,0.4c-4.48,2.12-10.04-1.94-10.44-6.98c-0.17-2.17-0.03-4.36-0.03-6.55
				C2148.05,625.45,2148.05,595.97,2148.05,566.49z"/>
		</g>
		<g>
			<path class="st0" d="M2148.05,420.92c0-7.26,0.07-14.51-0.04-21.77c-0.04-2.56,0.51-4.59,2-6.87c0.96-1.47,0.87-2.99,3.24-2.98
				c16.05,0.07,32.1-0.03,48.14,0.08c4.04,0.03,8.01,4.06,8.16,8.06c0.17,4.71,0.32,9.45-0.04,14.14
				c-0.32,4.08-1.13,8.18-2.22,12.13c-0.52,1.88-2.05,3.56-3.37,5.11c-4.36,5.11-9.98,8.99-13.26,15.21
				c-2.67,5.06-8.64,5.76-13.61,6.32c-6.84,0.78-13.85,0.41-20.76,0.13c-6.43-0.26-8.2-2.42-8.23-8.91
				C2148.03,434.71,2148.05,427.82,2148.05,420.92z"/>
		</g>
	</g>
</g>
</svg>
