<?xml version="1.0" encoding="utf-8"?>
<!-- Generator: Adobe Illustrator 25.0.0, SVG Export Plug-In . SVG Version: 6.00 Build 0)  -->
<svg version="1.1" id="Layer_1" xmlns="http://www.w3.org/2000/svg" xmlns:xlink="http://www.w3.org/1999/xlink" x="0px" y="0px"
	 viewBox="0 0 155.91 155.91" style="enable-background:new 0 0 155.91 155.91;" xml:space="preserve">
<path d="M22.7,77.58c0-12.34,0.02-24.68-0.01-37.02c-0.01-6.24,2.95-10.91,7.87-14.38c3.44-2.42,7.35-3.57,11.67-3.56
	c23.96,0.07,47.93,0.08,71.89-0.02c4.44-0.02,8,1.92,11.4,4.21c3.22,2.16,4.95,5.6,6.54,9.03c0.11,0.24,0.35,0.51,0.31,0.73
	c-0.59,3.31,0.91,6.41,0.91,9.66c-0.02,19.46,0.02,38.91-0.05,58.37c-0.01,2.2-0.67,4.4-0.81,6.61c-0.15,2.31,0.37,4.73-0.12,6.95
	c-0.95,4.36-2.94,8.29-6.88,10.87c-4.51,2.96-9.22,4.37-14.4,4.37c-22.5,0-45-0.01-67.51,0.01c-4.38,0-8.39-1.3-12.25-3.23
	c-1.1-0.55-2.04-0.88-2.58-2.37c-0.54-1.49-2.48-2.41-3.31-3.86c-1.71-2.99-2.87-6.07-2.79-9.77C22.87,101.97,22.7,89.77,22.7,77.58
	z M46.4,77.96c0,5.52,0,11.04,0,16.56c0,3.34,0,6.68,0,10.02c0,0.73,0.02,1.45,0,2.18c-0.06,1.41,0.81,2.05,2.02,2.23
	c1.35,0.2,2.33-0.73,2.35-2.31c0.05-4.65,0.25-9.31-0.05-13.94c-0.24-3.78,1.03-6.58,3.88-8.9c1.71-1.4,3.53-2.76,4.91-4.46
	c1.53-1.87,2.93-3.75,5.23-4.72c1.87-4.45,6.9-6.04,9.26-10.06c0.21-0.36,0.57-0.84,0.92-0.9c1.92-0.33,2.67-2.06,3.96-3.13
	c1.39-1.16,1.78-2.74,1.75-4.5c-0.05-2.76-0.1-5.52,0.02-8.28c0.06-1.46-0.57-1.59-1.79-1.59c-9.36,0.04-18.71,0.01-28.07,0.03
	c-3.16,0-4.39,1.2-4.39,4.31C46.38,59.66,46.4,68.81,46.4,77.96z M108.7,77.66c0-9.15,0-18.3,0-27.44c0-0.87,0.25-1.85-0.06-2.59
	c-0.37-0.87-1.11-1.55-2.37-1.47c-1.49,0.1-1.06,1.08-1.07,1.84c-0.02,5.52-0.14,11.04,0.05,16.55c0.08,2.28-1.41,3.81-1.94,5.76
	c-2.67,0.39-2.94,3.15-4.54,4.63c-4.76,4.43-9.71,8.68-13.92,13.68c-1.67,1.98-4.02,3.26-5.57,5.46c-1.31,1.87-3.87,3.1-4.62,5.08
	c-0.82,2.16-0.19,4.87-0.19,7.34c0,0.29,0.04,0.59-0.01,0.87c-0.22,1.37,0.42,1.74,1.71,1.64c1.31-0.1,2.63-0.1,3.94-0.01
	c5.28,0.37,10.65-0.89,15.86,0.84c0.39,0.13,0.97,0.18,1.29-0.01c2.54-1.51,5.32-0.68,7.98-0.82c3.03-0.16,3.43-0.44,3.44-3.47
	C108.71,96.24,108.7,86.95,108.7,77.66z"/>
</svg>
